<svg width="120" height="133" viewBox="0 0 120 133" fill="none" xmlns="http://www.w3.org/2000/svg">
<path d="M0.72 72.63C0.66 72.69 0.6 72.72 0.54 72.72C0.36 72.72 0.27 72.45 0.27 71.91C0.27 71.55 0.36 71.19 0.54 70.83C0.78 70.41 1.2 70.17 1.8 70.11C3.48 69.99 5.07 69.42 6.57 68.4C8.07 67.38 9.39 66.18 10.53 64.8C11.67 63.36 12.48 62.01 12.96 60.75L21.24 40.05C22.38 37.23 23.67 34.5 25.11 31.86C26.61 29.22 28.5 27.06 30.78 25.38C33.12 23.7 36.06 22.86 39.6 22.86C40.98 22.86 42.36 23.04 43.74 23.4C45.18 23.7 46.38 24.21 47.34 24.93C48.3 25.65 48.78 26.67 48.78 27.99C48.78 28.17 48.78 28.35 48.78 28.53C48.78 28.71 48.75 28.89 48.69 29.07C48.51 30.03 47.97 30.99 47.07 31.95C46.23 32.91 45.57 34.11 45.09 35.55C45.03 35.97 44.76 36.18 44.28 36.18C43.86 36.18 43.77 35.91 44.01 35.37C44.49 34.65 44.85 33.81 45.09 32.85C45.39 31.83 45.54 30.81 45.54 29.79C45.54 28.23 45.18 26.85 44.46 25.65C43.74 24.45 42.51 23.85 40.77 23.85C39.21 23.85 37.62 24.3 36 25.2C34.38 26.1 32.97 27.66 31.77 29.88L15.12 60.57C13.56 63.45 12.12 65.52 10.8 66.78C9.54 67.98 8.49 68.73 7.65 69.03H29.34C32.22 69.03 34.89 68.94 37.35 68.76C39.81 68.58 41.31 68.13 41.85 67.41C42.45 66.57 42.75 65.67 42.75 64.71C42.75 63.21 41.94 62.1 40.32 61.38C40.14 61.26 40.05 61.14 40.05 61.02C40.05 60.9 40.11 60.78 40.23 60.66C40.41 60.54 40.62 60.54 40.86 60.66C41.4 60.9 42.03 61.44 42.75 62.28C43.53 63.06 44.25 63.93 44.91 64.89C45.57 65.79 45.99 66.51 46.17 67.05C46.35 67.59 46.44 68.13 46.44 68.67C46.44 71.13 44.31 72.36 40.05 72.36C36.69 72.36 33.09 72.24 29.25 72C25.41 71.76 21.6 71.49 17.82 71.19C14.1 70.89 10.59 70.68 7.29 70.56C6.03 70.44 4.77 70.62 3.51 71.1C2.31 71.52 1.38 72.03 0.72 72.63Z" fill="#495773"/>
<path d="M59.545 99.165C59.0917 99.165 58.7233 99.08 58.44 98.91C58.1567 98.7967 58.0433 98.5133 58.1 98.06C58.1 97.89 58.185 97.635 58.355 97.295C58.525 96.955 58.6383 96.7 58.695 96.53C58.9783 95.7367 59.2333 94.9433 59.46 94.15C59.6867 93.3 59.9133 92.5067 60.14 91.77C60.9333 88.6533 61.67 85.565 62.35 82.505C63.03 79.3883 63.5683 76.2717 63.965 73.155C64.1917 71.3417 64.475 68.905 64.815 65.845C65.155 62.7283 65.325 59.725 65.325 56.835C65.325 55.7017 65.2967 54.6533 65.24 53.69C65.1833 52.67 65.0417 51.7633 64.815 50.97C62.945 50.97 61.075 50.97 59.205 50.97C57.335 50.9133 55.4933 50.885 53.68 50.885C52.83 50.885 51.64 50.9417 50.11 51.055C48.6367 51.1683 47.1067 51.4233 45.52 51.82C43.99 52.2167 42.715 52.8683 41.695 53.775C40.675 54.6817 40.2217 55.9 40.335 57.43C40.3917 57.8833 40.5617 58.5067 40.845 59.3C41.1283 60.0367 41.3267 60.49 41.44 60.66L40.505 61.34C40.165 60.7167 39.74 60.0083 39.23 59.215C38.72 58.365 38.2667 57.5433 37.87 56.75C37.4733 55.9567 37.2467 55.3617 37.19 54.965C37.1333 54.3983 37.1617 53.6617 37.275 52.755C37.3883 51.8483 37.8417 51.055 38.635 50.375C39.485 49.6383 40.6467 49.1567 42.12 48.93C43.65 48.7033 45.2083 48.59 46.795 48.59C48.325 48.59 49.7983 48.6467 51.215 48.76C52.6317 48.8733 53.7933 48.93 54.7 48.93C54.7 48.93 55.3517 48.93 56.655 48.93C57.9583 48.93 59.6017 48.93 61.585 48.93C63.625 48.8733 65.7783 48.845 68.045 48.845C70.3117 48.845 72.38 48.845 74.25 48.845L72.465 51.055H66.515C67.365 52.6417 67.9033 54.8517 68.13 57.685C68.4133 60.5183 68.555 63.2383 68.555 65.845C68.555 66.9217 68.555 67.9417 68.555 68.905C68.555 69.8683 68.5267 70.7183 68.47 71.455C68.3567 74.1183 67.9883 77.32 67.365 81.06C66.7417 84.8 65.9483 88.3417 64.985 91.685C67.3083 88.3983 70.1417 84.4883 73.485 79.955C76.885 75.4217 80.7667 70.7183 85.13 65.845C89.55 60.915 94.4233 56.24 99.75 51.82C100.827 50.9133 102.243 49.8933 104 48.76C105.757 47.6267 107.627 46.6633 109.61 45.87C111.593 45.02 113.463 44.595 115.22 44.595C116.863 44.595 117.997 44.8783 118.62 45.445C119.3 46.0117 119.64 46.7483 119.64 47.655C119.64 48.7317 119.3 49.9217 118.62 51.225C117.997 52.5283 117.515 53.605 117.175 54.455C117.118 54.625 116.863 54.7383 116.41 54.795C115.957 54.8517 115.758 54.7667 115.815 54.54C115.928 54.0867 116.042 53.5483 116.155 52.925C116.325 52.245 116.41 51.565 116.41 50.885C116.41 49.9783 116.24 49.1567 115.9 48.42C115.56 47.6833 114.908 47.2583 113.945 47.145C113.775 47.0883 113.605 47.06 113.435 47.06C113.265 47.06 113.095 47.06 112.925 47.06C111.282 47.06 109.497 47.6267 107.57 48.76C105.7 49.8367 103.518 51.3667 101.025 53.35C96.265 57.1467 91.7317 61.34 87.425 65.93C83.175 70.4633 79.095 75.2233 75.185 80.21C73.145 82.76 71.1617 85.3383 69.235 87.945C67.3083 90.5517 65.5233 93.2717 63.88 96.105C63.7667 96.3317 63.6533 96.5867 63.54 96.87C63.4833 97.21 63.3983 97.465 63.285 97.635C63.1717 97.7483 62.8317 97.9183 62.265 98.145C61.6983 98.4283 61.1317 98.655 60.565 98.825C60.055 99.0517 59.715 99.165 59.545 99.165Z" fill="#495773"/>
</svg>
