<svg width="51" height="57" viewBox="0 0 51 57" fill="none" xmlns="http://www.w3.org/2000/svg">
<path d="M0.32 32.28C0.293333 32.3067 0.266667 32.32 0.24 32.32C0.16 32.32 0.12 32.2 0.12 31.96C0.12 31.8 0.16 31.64 0.24 31.48C0.346667 31.2933 0.533333 31.1867 0.8 31.16C1.54667 31.1067 2.25333 30.8533 2.92 30.4C3.58667 29.9467 4.17333 29.4133 4.68 28.8C5.18667 28.16 5.54667 27.56 5.76 27L9.44 17.8C9.94667 16.5467 10.52 15.3333 11.16 14.16C11.8267 12.9867 12.6667 12.0267 13.68 11.28C14.72 10.5333 16.0267 10.16 17.6 10.16C18.2133 10.16 18.8267 10.24 19.44 10.4C20.08 10.5333 20.6133 10.76 21.04 11.08C21.4667 11.4 21.68 11.8533 21.68 12.44C21.68 12.52 21.68 12.6 21.68 12.68C21.68 12.76 21.6667 12.84 21.64 12.92C21.56 13.3467 21.32 13.7733 20.92 14.2C20.5467 14.6267 20.2533 15.16 20.04 15.8C20.0133 15.9867 19.8933 16.08 19.68 16.08C19.4933 16.08 19.4533 15.96 19.56 15.72C19.7733 15.4 19.9333 15.0267 20.04 14.6C20.1733 14.1467 20.24 13.6933 20.24 13.24C20.24 12.5467 20.08 11.9333 19.76 11.4C19.44 10.8667 18.8933 10.6 18.12 10.6C17.4267 10.6 16.72 10.8 16 11.2C15.28 11.6 14.6533 12.2933 14.12 13.28L6.72 26.92C6.02667 28.2 5.38667 29.12 4.8 29.68C4.24 30.2133 3.77333 30.5467 3.4 30.68H13.04C14.32 30.68 15.5067 30.64 16.6 30.56C17.6933 30.48 18.36 30.28 18.6 29.96C18.8667 29.5867 19 29.1867 19 28.76C19 28.0933 18.64 27.6 17.92 27.28C17.84 27.2267 17.8 27.1733 17.8 27.12C17.8 27.0667 17.8267 27.0133 17.88 26.96C17.96 26.9067 18.0533 26.9067 18.16 26.96C18.4 27.0667 18.68 27.3067 19 27.68C19.3467 28.0267 19.6667 28.4133 19.96 28.84C20.2533 29.24 20.44 29.56 20.52 29.8C20.6 30.04 20.64 30.28 20.64 30.52C20.64 31.6133 19.6933 32.16 17.8 32.16C16.3067 32.16 14.7067 32.1067 13 32C11.2933 31.8933 9.6 31.7733 7.92 31.64C6.26667 31.5067 4.70667 31.4133 3.24 31.36C2.68 31.3067 2.12 31.3867 1.56 31.6C1.02667 31.7867 0.613333 32.0133 0.32 32.28Z" fill="#733702"/>
<path d="M25.695 42.715C25.5083 42.715 25.3567 42.68 25.24 42.61C25.1233 42.5633 25.0767 42.4467 25.1 42.26C25.1 42.19 25.135 42.085 25.205 41.945C25.275 41.805 25.3217 41.7 25.345 41.63C25.4617 41.3033 25.5667 40.9767 25.66 40.65C25.7533 40.3 25.8467 39.9733 25.94 39.67C26.2667 38.3867 26.57 37.115 26.85 35.855C27.13 34.5717 27.3517 33.2883 27.515 32.005C27.6083 31.2583 27.725 30.255 27.865 28.995C28.005 27.7117 28.075 26.475 28.075 25.285C28.075 24.8183 28.0633 24.3867 28.04 23.99C28.0167 23.57 27.9583 23.1967 27.865 22.87C27.095 22.87 26.325 22.87 25.555 22.87C24.785 22.8467 24.0267 22.835 23.28 22.835C22.93 22.835 22.44 22.8583 21.81 22.905C21.2033 22.9517 20.5733 23.0567 19.92 23.22C19.29 23.3833 18.765 23.6517 18.345 24.025C17.925 24.3983 17.7383 24.9 17.785 25.53C17.8083 25.7167 17.8783 25.9733 17.995 26.3C18.1117 26.6033 18.1933 26.79 18.24 26.86L17.855 27.14C17.715 26.8833 17.54 26.5917 17.33 26.265C17.12 25.915 16.9333 25.5767 16.77 25.25C16.6067 24.9233 16.5133 24.6783 16.49 24.515C16.4667 24.2817 16.4783 23.9783 16.525 23.605C16.5717 23.2317 16.7583 22.905 17.085 22.625C17.435 22.3217 17.9133 22.1233 18.52 22.03C19.15 21.9367 19.7917 21.89 20.445 21.89C21.075 21.89 21.6817 21.9133 22.265 21.96C22.8483 22.0067 23.3267 22.03 23.7 22.03C23.7 22.03 23.9683 22.03 24.505 22.03C25.0417 22.03 25.7183 22.03 26.535 22.03C27.375 22.0067 28.2617 21.995 29.195 21.995C30.1283 21.995 30.98 21.995 31.75 21.995L31.015 22.905H28.565C28.915 23.5583 29.1367 24.4683 29.23 25.635C29.3467 26.8017 29.405 27.9217 29.405 28.995C29.405 29.4383 29.405 29.8583 29.405 30.255C29.405 30.6517 29.3933 31.0017 29.37 31.305C29.3233 32.4017 29.1717 33.72 28.915 35.26C28.6583 36.8 28.3317 38.2583 27.935 39.635C28.8917 38.2817 30.0583 36.6717 31.435 34.805C32.835 32.9383 34.4333 31.0017 36.23 28.995C38.05 26.965 40.0567 25.04 42.25 23.22C42.6933 22.8467 43.2767 22.4267 44 21.96C44.7233 21.4933 45.4933 21.0967 46.31 20.77C47.1267 20.42 47.8967 20.245 48.62 20.245C49.2967 20.245 49.7633 20.3617 50.02 20.595C50.3 20.8283 50.44 21.1317 50.44 21.505C50.44 21.9483 50.3 22.4383 50.02 22.975C49.7633 23.5117 49.565 23.955 49.425 24.305C49.4017 24.375 49.2967 24.4217 49.11 24.445C48.9233 24.4683 48.8417 24.4333 48.865 24.34C48.9117 24.1533 48.9583 23.9317 49.005 23.675C49.075 23.395 49.11 23.115 49.11 22.835C49.11 22.4617 49.04 22.1233 48.9 21.82C48.76 21.5167 48.4917 21.3417 48.095 21.295C48.025 21.2717 47.955 21.26 47.885 21.26C47.815 21.26 47.745 21.26 47.675 21.26C46.9983 21.26 46.2633 21.4933 45.47 21.96C44.7 22.4033 43.8017 23.0333 42.775 23.85C40.815 25.4133 38.9483 27.14 37.175 29.03C35.425 30.8967 33.745 32.8567 32.135 34.91C31.295 35.96 30.4783 37.0217 29.685 38.095C28.8917 39.1683 28.1567 40.2883 27.48 41.455C27.4333 41.5483 27.3867 41.6533 27.34 41.77C27.3167 41.91 27.2817 42.015 27.235 42.085C27.1883 42.1317 27.0483 42.2017 26.815 42.295C26.5817 42.4117 26.3483 42.505 26.115 42.575C25.905 42.6683 25.765 42.715 25.695 42.715Z" fill="#733702"/>
</svg>
