<?xml version="1.0" standalone="no"?>
<!DOCTYPE svg PUBLIC "-//W3C//DTD SVG 20010904//EN"
 "http://www.w3.org/TR/2001/REC-SVG-20010904/DTD/svg10.dtd">
<svg version="1.0" xmlns="http://www.w3.org/2000/svg"
 width="100.000000pt" height="100.000000pt" viewBox="0 0 100.000000 100.000000"
 preserveAspectRatio="xMidYMid meet">

<g transform="translate(0.000000,100.000000) scale(0.100000,-0.100000)"
fill="#000000" stroke="none">
<path d="M415 841 c-100 -27 -188 -99 -232 -190 -24 -48 -27 -69 -27 -146 -1
-79 3 -97 27 -145 78 -153 245 -231 400 -186 59 17 95 45 41 32 l-29 -8 30 34
30 33 -30 -27 c-16 -15 -47 -34 -68 -43 l-38 -16 16 30 c8 17 15 34 15 38 -1
4 -10 -9 -21 -29 -11 -21 -26 -38 -34 -38 -18 0 -41 43 -50 92 l-7 37 108 4
109 3 -111 2 -111 2 -7 53 c-3 28 -6 69 -6 89 l0 37 68 4 67 3 -67 2 -68 2 0
38 c0 20 3 61 6 90 l7 52 63 0 62 0 8 -77 c4 -43 4 -125 2 -183 -4 -80 -3 -94
4 -60 5 25 7 107 5 182 l-5 137 41 4 42 4 -46 1 c-46 2 -47 3 -54 39 -4 21
-13 50 -21 65 l-15 29 38 -16 c87 -35 147 -143 163 -290 l9 -80 -4 80 c-4 101
-34 184 -88 242 -22 24 -37 43 -33 43 32 0 151 -95 140 -112 -3 -4 1 -8 9 -8
17 0 54 -80 63 -138 l6 -41 -38 -4 -39 -4 39 -1 c43 -2 41 8 21 -102 -6 -32
-5 -34 9 -16 8 10 18 42 22 72 25 202 -120 379 -320 389 -39 3 -84 1 -101 -4z
m41 -39 c-8 -15 -17 -44 -21 -65 l-7 -37 -96 0 -96 0 35 36 c41 43 102 76 123
68 9 -3 16 -1 16 4 0 10 19 18 48 21 10 1 9 -5 -2 -27z m68 0 c8 -15 17 -44
21 -65 l7 -37 -57 0 -57 0 7 37 c9 50 32 93 50 93 8 0 21 -13 29 -28z m-108
-164 c-3 -29 -6 -70 -6 -90 l0 -38 -70 0 c-81 0 -82 1 -55 103 8 32 15 61 14
65 -2 18 -29 -75 -35 -119 l-7 -49 -45 0 -45 0 7 41 c4 23 16 64 28 90 l20 49
101 0 100 0 -7 -52z m-152 -188 c4 -27 13 -67 21 -90 l14 -40 -38 0 c-37 0
-40 3 -59 49 -12 26 -24 67 -28 90 l-7 41 45 0 45 0 7 -50z m146 13 c0 -21 3
-62 7 -91 l6 -53 -58 3 c-57 3 -58 3 -71 41 -8 21 -16 61 -20 88 l-7 49 72 0
71 0 0 -37z m-96 -171 c4 -10 23 -34 43 -53 l37 -34 -37 44 c-20 25 -37 48
-37 53 0 4 24 8 54 8 l54 0 7 -37 c4 -21 13 -50 21 -65 l15 -29 -37 16 c-20 8
-40 12 -45 10 -14 -9 -81 31 -118 69 l-35 36 36 0 c27 0 38 -5 42 -18z"/>
<path d="M316 724 c-5 -14 -4 -15 9 -4 17 14 19 20 6 20 -5 0 -12 -7 -15 -16z"/>
<path d="M613 503 c9 -2 23 -2 30 0 6 3 -1 5 -18 5 -16 0 -22 -2 -12 -5z"/>
<path d="M670 285 c0 -91 3 -165 8 -165 4 1 23 14 42 31 l35 29 24 -55 c25
-57 35 -64 66 -41 18 13 18 15 1 57 -10 24 -20 49 -23 55 -2 7 15 14 47 18 37
5 49 10 43 19 -13 21 -225 217 -234 217 -5 0 -9 -74 -9 -165z m208 -47 c2 -5
-14 -8 -36 -8 -21 0 -41 -3 -44 -6 -3 -3 4 -31 17 -62 13 -31 21 -60 18 -64
-10 -18 -22 -4 -43 52 -12 33 -25 60 -28 60 -3 0 -21 -14 -39 -32 l-33 -32 0
138 0 139 93 -89 c50 -49 94 -92 95 -96z"/>
<path d="M551 284 c0 -11 3 -14 6 -6 3 7 2 16 -1 19 -3 4 -6 -2 -5 -13z"/>
</g>
</svg>
